<svg xmlns="http://www.w3.org/2000/svg" width="35" height="35" viewBox="0 0 35 35"><defs><style>.a{fill:#e4ffcf;}.b{fill:none;stroke:#4b702e;stroke-linecap:round;stroke-width:1.1px;}.c{fill:#4b702e;}</style></defs><g transform="translate(-4044 -2104)"><circle class="a" cx="17.5" cy="17.5" r="17.5" transform="translate(4044 2104)"/><g transform="translate(4054.085 2110.031)"><g transform="translate(11.972 3.127) rotate(45)"><path class="b" d="M0,0H4.042" transform="translate(0 0)"/></g><g transform="translate(11.972 8.843) rotate(-45)"><path class="b" d="M0,0H4.042" transform="translate(0 0)"/></g><g transform="translate(0 13.315)"><path class="c" d="M5.986,321.334A5.993,5.993,0,0,0,0,327.32a.511.511,0,0,0,.511.511h10.95a.511.511,0,0,0,.511-.511A5.993,5.993,0,0,0,5.986,321.334Zm-4.938,5.475a4.964,4.964,0,0,1,9.875,0Z" transform="translate(0 -321.334)"/></g><g transform="translate(2.737 4.556)"><path class="c" d="M83.583,64.267a3.249,3.249,0,1,0,3.249,3.249A3.252,3.252,0,0,0,83.583,64.267Zm0,5.475a2.226,2.226,0,1,1,2.226-2.226A2.229,2.229,0,0,1,83.583,69.742Z" transform="translate(-80.334 -64.267)"/></g></g></g></svg>