<svg xmlns="http://www.w3.org/2000/svg" width="14.864" height="14.848" viewBox="0 0 14.864 14.848"><defs><style>.a{fill:#f44336;}.b{fill:#d43a2f;}</style></defs><g transform="translate(-6465.012 -2611)"><path class="a" d="M14.836,5.638a.467.467,0,0,0-.331-.293l-4.308-1L7.835.243a.484.484,0,0,0-.806,0l-2.362,4.1-4.308,1a.465.465,0,0,0-.267.731L2.985,9.942l-.933,4.371a.464.464,0,0,0,.656.515l4.724-2.283,4.724,2.283a.455.455,0,0,0,.2.046.465.465,0,0,0,.455-.561l-.933-4.371,2.893-3.867a.466.466,0,0,0,.064-.438Z" transform="translate(6465.011 2610.973)"/><path class="b" d="M7.432.027a.456.456,0,0,0-.4.216l-2.362,4.1-4.308,1a.465.465,0,0,0-.267.731L2.985,9.942l-.933,4.371a.464.464,0,0,0,.443.561h.021a.458.458,0,0,0,.191-.046l4.724-2.283Z" transform="translate(6465.011 2610.973)"/></g></svg>