<svg xmlns="http://www.w3.org/2000/svg" width="35" height="35" viewBox="0 0 35 35"><defs><style>.a{fill:rgba(255,202,24,0.12);}.b{fill:#eeb700;}</style></defs><g transform="translate(-381 -369)"><g transform="translate(-3663 -1735)"><circle class="a" cx="17.5" cy="17.5" r="17.5" transform="translate(4044 2104)"/></g><g transform="translate(389.787 377.788)"><g transform="translate(10.936)"><path class="b" d="M327.312,2.734h-2.224V.51a.51.51,0,1,0-1.021,0V2.734h-2.223a.51.51,0,1,0,0,1.021h2.223V5.978a.51.51,0,1,0,1.021,0V3.755h2.224a.51.51,0,1,0,0-1.021Z" transform="translate(-321.334)"/></g><g transform="translate(0 10.936)"><path class="b" d="M5.978,321.334A5.985,5.985,0,0,0,0,327.313a.51.51,0,0,0,.51.51H11.446a.51.51,0,0,0,.51-.51A5.985,5.985,0,0,0,5.978,321.334ZM1.047,326.8a4.958,4.958,0,0,1,9.863,0Z" transform="translate(0 -321.334)"/></g><g transform="translate(2.734 2.187)"><path class="b" d="M83.578,64.267a3.244,3.244,0,1,0,3.245,3.244A3.248,3.248,0,0,0,83.578,64.267Zm0,5.468A2.223,2.223,0,1,1,85.8,67.511,2.226,2.226,0,0,1,83.578,69.735Z" transform="translate(-80.334 -64.267)"/></g></g></g></svg>