<svg xmlns="http://www.w3.org/2000/svg" width="35" height="35" viewBox="0 0 35 35"><defs><style>.a{fill:#ffdfdf;}.b{fill:#c10e0e;}</style></defs><g transform="translate(-4044 -2104)"><path class="a" d="M17.5,0A17.5,17.5,0,1,1,0,17.5,17.5,17.5,0,0,1,17.5,0Z" transform="translate(4044 2104)"/><g transform="translate(4052.894 2104.869)"><g transform="translate(0 17.763)"><path class="b" d="M5.989,321.334A6,6,0,0,0,0,327.323a.511.511,0,0,0,.511.511H11.467a.511.511,0,0,0,.511-.511A6,6,0,0,0,5.989,321.334Zm-4.94,5.478a4.967,4.967,0,0,1,9.881,0Z" transform="translate(0 -321.334)"/></g><g transform="translate(2.739 8.999)"><path class="b" d="M83.584,64.267a3.25,3.25,0,1,0,3.25,3.25A3.254,3.254,0,0,0,83.584,64.267Zm0,5.478a2.228,2.228,0,1,1,2.228-2.227A2.23,2.23,0,0,1,83.584,69.745Z" transform="translate(-80.334 -64.267)"/></g><rect class="b" width="6" height="1" rx="0.5" transform="translate(11.213 9.626)"/></g></g></svg>