<svg xmlns="http://www.w3.org/2000/svg" width="13.864" height="12.186" viewBox="0 0 13.864 12.186"><defs><style>.a{fill:#bcfbff;}.b{fill:#45f6ff;}.c{fill:#2ebeef;}.d{fill:#0d8ebc;}</style></defs><g transform="translate(-6486 -2611)"><path class="a" d="M0,171.4a.406.406,0,0,0,.1.265l6.526,7.582a.406.406,0,0,0,.616,0l6.526-7.582a.406.406,0,0,0,.1-.265.912.912,0,0,0-.759-.406H.759A.912.912,0,0,0,0,171.4Z" transform="translate(6486 2443.796)"/><path class="b" d="M262.168,170.995h-6.173v8.395a.406.406,0,0,0,.308-.141l6.526-7.582a.406.406,0,0,0,.1-.265A.912.912,0,0,0,262.168,170.995Z" transform="translate(6236.937 2443.796)"/><path class="b" d="M13.831,35.03l-1.652-3.791A.406.406,0,0,0,11.806,31H2.058a.406.406,0,0,0-.372.244L.034,35.03A.406.406,0,0,0,0,35.192H13.864a.405.405,0,0,0-.034-.162Z" transform="translate(6486 2580.005)"/><path class="c" d="M262.895,35.03l-1.652-3.791A.406.406,0,0,0,260.87,31H256v4.2h6.932A.406.406,0,0,0,262.895,35.03Z" transform="translate(6236.936 2580.005)"/><path class="c" d="M68.106,31a.406.406,0,0,0-.22.065l2.657,4.133L72.98,31Z" transform="translate(6419.952 2580.005)"/><path class="d" d="M261.089,31.061a.406.406,0,0,0-.22-.065h-4.874l2.437,4.2Z" transform="translate(6236.937 2580.004)"/><path class="c" d="M168.108,193.983,170.554,186h-4.892Z" transform="translate(6324.824 2429.202)"/><path class="d" d="M255.995,186v7.988L258.441,186Z" transform="translate(6236.937 2429.202)"/></g></svg>