<svg xmlns="http://www.w3.org/2000/svg" width="23.967" height="23.967" viewBox="0 0 23.967 23.967"><defs><style>.a{opacity:0.2;}</style></defs><g class="a"><path d="M11.983,23.967A11.983,11.983,0,1,0,0,11.983,12.009,12.009,0,0,0,11.983,23.967Zm3.555-2.02A11.179,11.179,0,0,0,17.129,19h2.76A10.611,10.611,0,0,1,15.538,21.947ZM20.944,17.6H17.583a21.031,21.031,0,0,0,.709-4.915h4.247A10.508,10.508,0,0,1,20.944,17.6Zm0-11.234a10.508,10.508,0,0,1,1.595,4.915H18.292a21.031,21.031,0,0,0-.709-4.915Zm-1.055-1.4h-2.76a11.185,11.185,0,0,0-1.59-2.942A10.614,10.614,0,0,1,19.889,4.962Zm-7.2-3.437c1.378.467,2.366,2.106,2.932,3.437H12.686Zm0,4.842h3.437a19.247,19.247,0,0,1,.764,4.915h-4.2Zm0,6.319h4.2a19.247,19.247,0,0,1-.764,4.916H12.686Zm0,6.319h2.932c-.566,1.334-1.555,2.971-2.932,3.438ZM4.078,19h2.76a11.185,11.185,0,0,0,1.59,2.942A10.614,10.614,0,0,1,4.078,19Zm7.2,3.437C9.9,21.976,8.916,20.339,8.349,19h2.932Zm0-4.842H7.844a19.247,19.247,0,0,1-.764-4.915h4.2Zm0-6.319H7.08a19.247,19.247,0,0,1,.764-4.915h3.437Zm0-9.757V4.962H8.349C8.916,3.628,9.9,1.991,11.281,1.524Zm-2.853.5a11.184,11.184,0,0,0-1.59,2.942H4.078A10.614,10.614,0,0,1,8.428,2.02ZM3.023,6.366H6.384a21.038,21.038,0,0,0-.709,4.916H1.428A10.512,10.512,0,0,1,3.023,6.366Zm-1.595,6.32H5.675A21.031,21.031,0,0,0,6.384,17.6H3.023A10.508,10.508,0,0,1,1.428,12.686Z"/></g></svg>