<svg xmlns="http://www.w3.org/2000/svg" width="21.305" height="24.221" viewBox="0 0 21.305 24.221"><defs><style>.a{opacity:0.2;}</style></defs><g class="a" transform="translate(-30.814 0)"><g transform="translate(30.814 0)"><path d="M51.847,9.472,41.755.221A.841.841,0,0,0,40.6.237L31.069,9.488a.841.841,0,0,0-.255.6V23.379a.841.841,0,0,0,.841.841h7.008a.841.841,0,0,0,.841-.841V17.212h3.925v6.167a.841.841,0,0,0,.841.841h7.008a.841.841,0,0,0,.841-.841V10.092A.841.841,0,0,0,51.847,9.472Zm-1.41,13.067H45.111V16.371a.841.841,0,0,0-.841-.841H38.663a.841.841,0,0,0-.841.841v6.167H32.5V10.447L41.2,2l9.234,8.465V22.538Z" transform="translate(-30.814 0)"/></g></g></svg>