<svg xmlns="http://www.w3.org/2000/svg" width="20.235" height="22.356" viewBox="0 0 20.235 22.356"><defs><style>.a{opacity:0.2;}</style></defs><g class="a"><path d="M42.077,14.624a.58.58,0,0,1-.58-.58V9.949a7.233,7.233,0,0,0-5.071-6.893,2.283,2.283,0,1,0-4.3,0,7.233,7.233,0,0,0-5.069,6.893v4.095a.58.58,0,0,1-.58.58,2.318,2.318,0,1,0,0,4.636h5.407a2.472,2.472,0,1,0,4.784,0h5.407a2.318,2.318,0,0,0,0-4.636ZM33.31,2.284a.967.967,0,1,1,1.8.493,7.2,7.2,0,0,0-1.663,0,.961.961,0,0,1-.136-.493Zm2.122,17.6a1.155,1.155,0,1,1-2.126-.625h1.943A1.147,1.147,0,0,1,35.432,19.884Zm6.645-1.941h-15.6a1,1,0,1,1,0-2,1.9,1.9,0,0,0,1.9-1.9V9.949a5.9,5.9,0,1,1,11.806,0v4.095a1.9,1.9,0,0,0,1.9,1.9,1,1,0,1,1,0,2Z" transform="translate(-24.16 0)"/></g></svg>