<svg xmlns="http://www.w3.org/2000/svg" width="14.864" height="11.321" viewBox="0 0 14.864 11.321"><defs><style>.a{fill:#ffc34d;}.b{fill:#f93;}.c{fill:#ffea80;}.d{fill:#ff6a4d;}.e{fill:#f03800;}</style></defs><g transform="translate(-6528.463 -2611)"><path class="a" d="M68.641,124.6l.644-3.218a.436.436,0,0,1,.775-.176l1.906,2.542c.3.4-.072.5-1.326,2.045C68.979,124.975,68.534,125.135,68.641,124.6Z" transform="translate(6461.83 2491.712)"/><path class="b" d="M326.371,125.79c-1.261-1.514-1.665-1.631-1.355-2.045l1.906-2.542a.436.436,0,0,1,.775.176l.644,3.218C328.454,125.158,327.915,125.017,326.371,125.79Z" transform="translate(6212.979 2491.712)"/><path class="c" d="M14.168,64.6,11.05,66.923,7.81,61.254a.435.435,0,0,0-.756,0l-3.24,5.669L.7,64.6a.436.436,0,0,0-.682.457L1.2,69.743l.788.474-.567.4.359,1.414a.436.436,0,0,0,.422.328h10.45a.436.436,0,0,0,.422-.328l.359-1.414-.346-.435.567-.435,1.19-4.682A.436.436,0,0,0,14.168,64.6Z" transform="translate(6528.463 2549.965)"/><path class="a" d="M263.457,65.061l-1.19,4.682-.567.435.346.435-.359,1.414a.436.436,0,0,1-.422.328h-5.225V61.035a.43.43,0,0,1,.378.219l3.24,5.669,3.118-2.319A.436.436,0,0,1,263.457,65.061Z" transform="translate(6279.856 2549.965)"/><path class="d" d="M199.453,213.413l-1.306-2.177a.435.435,0,0,0-.747,0l-1.306,2.177a.436.436,0,0,0,0,.448l1.306,2.177a.435.435,0,0,0,.747,0l1.306-2.177A.436.436,0,0,0,199.453,213.413Z" transform="translate(6338.123 2404.329)"/><path class="e" d="M257.718,213.862l-1.306,2.177a.433.433,0,0,1-.373.211v-5.225a.431.431,0,0,1,.373.211l1.306,2.177A.436.436,0,0,1,257.718,213.862Z" transform="translate(6279.856 2404.329)"/><path class="a" d="M44.669,361.46a.436.436,0,0,1-.435.435H41.71l-.221-.871h2.744A.436.436,0,0,1,44.669,361.46Z" transform="translate(6488.179 2258.683)"/><path class="b" d="M364.209,361.025l-.221.871h-2.523a.435.435,0,1,1,0-.871Z" transform="translate(6177.915 2258.683)"/></g></svg>